<?xml version="1.0" standalone="no"?>
<!DOCTYPE svg PUBLIC "-//W3C//DTD SVG 20010904//EN"
 "http://www.w3.org/TR/2001/REC-SVG-20010904/DTD/svg10.dtd">
<svg version="1.0" xmlns="http://www.w3.org/2000/svg"
 width="727.000000pt" height="343.000000pt" viewBox="0 0 727.000000 343.000000"
 preserveAspectRatio="xMidYMid meet">

<g transform="translate(0.000000,343.000000) scale(0.100000,-0.100000)"
fill="#232B5B" stroke="none">
<path d="M72 3325 c2 -3 68 -16 147 -29 78 -13 144 -25 146 -27 13 -14 28
-324 32 -709 5 -448 -4 -807 -29 -1047 l-11 -112 -51 -10 c-28 -6 -87 -15
-130 -21 -44 -7 -89 -16 -100 -21 -12 -5 240 -7 604 -6 611 3 627 3 705 25
130 36 253 101 332 175 27 25 37 29 75 24 23 -2 101 -10 172 -17 72 -8 121
-16 111 -20 -15 -5 -12 -8 14 -13 49 -10 55 -9 41 8 -10 12 -10 15 1 14 20 -1
86 -27 74 -29 -5 -1 17 -9 50 -17 73 -18 205 -31 381 -37 94 -3 151 -10 203
-26 39 -11 80 -19 89 -16 9 3 73 -1 141 -8 116 -13 149 -25 135 -48 -3 -4 25
-8 63 -8 37 0 86 -3 108 -5 30 -4 35 -3 20 4 -11 5 -33 10 -50 10 -23 1 -27 4
-15 11 19 12 113 13 125 1 20 -19 135 -41 206 -40 68 2 70 2 29 9 -57 9 -127
35 -114 42 5 3 50 2 99 -3 50 -4 102 -8 116 -8 23 -1 35 -8 85 -50 7 -5 14 -7
17 -5 3 3 34 8 69 10 34 3 78 9 96 15 21 7 37 7 45 1 14 -11 149 -42 184 -42
13 0 26 7 30 16 4 10 14 13 32 10 21 -5 233 -7 356 -5 17 1 59 -2 94 -5 62 -5
76 6 21 17 -14 3 -7 4 15 2 22 -2 54 -6 70 -10 20 -4 25 -3 17 3 -10 7 -3 11
25 15 85 15 348 2 321 -14 -8 -5 9 -8 42 -8 51 1 52 2 23 10 -73 21 -31 48 47
30 59 -14 127 -14 190 0 43 9 57 8 86 -6 20 -9 39 -14 42 -10 9 8 -18 25 -41
25 -10 0 -16 4 -13 9 3 5 79 7 168 5 157 -4 266 6 315 28 12 6 38 7 58 4 23
-5 42 -3 51 5 10 8 61 12 162 12 98 0 125 2 82 6 -57 5 -62 8 -45 18 21 13 20
13 -150 -7 -38 -4 -100 -7 -137 -5 -63 4 -91 -7 -50 -18 14 -5 -163 -2 -193 3
-29 4 -575 -19 -585 -25 -14 -8 -342 -9 -370 0 -11 3 -25 3 -32 -1 -9 -6 -5
-10 12 -15 l25 -7 -27 -1 c-14 -1 -28 5 -30 11 -4 10 -102 13 -429 15 -456 2
-553 5 -614 22 -22 5 -67 13 -100 16 -101 10 -119 13 -149 20 -20 6 -27 5 -22
-3 11 -18 -71 -18 -179 0 -55 9 -111 19 -124 24 -16 5 -22 4 -18 -3 8 -12 -24
-23 -66 -23 -16 0 -26 4 -22 10 12 19 -47 30 -201 35 -87 2 -159 7 -162 10 -3
3 15 5 40 5 43 0 63 7 156 53 46 24 162 108 240 174 l49 43 7 -41 c9 -56 44
-127 72 -146 33 -21 70 -10 113 36 179 187 236 242 299 293 71 57 140 100 128
80 -3 -5 -44 -66 -90 -135 -112 -166 -131 -243 -75 -303 64 -68 162 -31 388
147 47 38 89 69 92 69 4 0 10 -15 13 -33 9 -46 81 -152 120 -176 74 -46 124
-19 367 199 58 52 71 60 65 40 -51 -162 -55 -231 -14 -272 18 -18 29 -20 79
-15 85 7 193 71 346 204 33 29 64 53 67 53 3 0 10 -18 16 -41 23 -84 135 -170
249 -190 47 -9 71 -8 122 5 85 21 209 85 312 161 l84 62 10 -68 c14 -91 41
-129 92 -129 34 0 48 12 226 189 169 167 296 274 310 259 3 -3 -9 -22 -26 -44
-52 -65 -106 -148 -140 -214 -24 -49 -32 -77 -33 -122 -1 -54 2 -62 27 -84 70
-61 186 -12 415 173 87 71 92 78 92 113 l0 38 -87 -52 c-170 -101 -237 -111
-235 -36 1 45 54 121 167 238 60 63 95 107 95 121 0 12 -15 38 -34 59 -29 31
-40 37 -74 36 -83 -3 -295 -151 -542 -379 l-65 -60 -3 51 -3 51 195 196 c237
239 587 644 635 734 18 35 13 59 -14 71 -47 21 -98 14 -151 -20 -106 -69 -406
-394 -674 -729 -88 -110 -160 -232 -160 -270 0 -23 -93 -87 -198 -137 -60 -29
-92 -37 -147 -41 l-70 -4 91 61 c211 142 258 252 195 456 -17 55 -29 108 -25
118 10 32 -14 48 -71 48 -46 0 -58 -4 -83 -29 -15 -16 -33 -44 -38 -62 -7 -26
-63 -82 -239 -241 -292 -264 -372 -318 -470 -318 -56 0 -75 19 -75 74 0 46 15
71 108 179 28 33 52 67 55 77 3 11 -6 42 -19 69 l-23 51 34 15 c45 18 46 51 4
100 -29 32 -35 35 -88 35 -64 0 -212 -43 -324 -94 -205 -94 -457 -291 -457
-358 0 -27 -173 -135 -242 -152 -36 -8 -62 17 -53 53 12 47 48 95 163 213 112
116 113 118 107 155 -4 21 -15 54 -25 73 -16 32 -21 35 -58 34 -78 -1 -295
-147 -493 -329 -120 -112 -159 -135 -159 -97 0 30 56 100 162 202 122 118 128
150 31 166 -81 13 -179 -57 -293 -208 -32 -42 -64 -92 -71 -111 -13 -37 -71
-81 -164 -123 -73 -34 -143 -31 -164 7 -25 45 -7 90 75 186 41 49 77 99 81
112 3 15 -2 40 -16 68 -25 51 -26 63 -7 63 8 0 24 8 37 19 21 17 22 21 9 50
-20 50 -55 71 -115 71 -163 0 -506 -166 -691 -334 -81 -73 -97 -108 -92 -200
4 -81 32 -148 86 -208 l34 -38 -33 0 c-19 0 -107 18 -197 39 -90 22 -194 43
-232 47 -39 4 -70 9 -70 13 0 3 9 20 21 36 199 292 227 800 62 1130 -138 275
-375 433 -713 475 -83 10 -1158 15 -1148 5z m1095 -40 c189 -31 325 -92 441
-200 312 -289 393 -839 185 -1263 -53 -108 -66 -122 -105 -112 -17 5 -35 7
-39 4 -16 -10 -9 17 11 46 11 16 36 61 55 102 108 231 122 574 34 848 -67 205
-215 388 -379 469 -111 54 -257 91 -392 98 -60 3 -108 10 -108 14 0 14 198 10
297 -6z m-647 -699 c0 -490 -3 -697 -11 -702 -8 -4 -8 -9 0 -17 7 -7 11 -90
11 -244 l0 -233 -45 0 -45 0 0 945 0 945 45 0 45 0 0 -694z m645 635 c288 -79
473 -265 561 -566 23 -77 27 -115 31 -262 6 -198 -5 -297 -47 -425 -29 -85
-74 -184 -102 -221 -13 -17 -18 -18 -59 -6 -24 7 -47 12 -51 11 -4 -1 -37 9
-73 23 -44 16 -65 20 -65 12 0 -7 -12 1 -26 16 -14 17 -39 31 -57 34 -18 3
-39 8 -47 13 -21 10 -200 62 -225 64 -11 1 -30 -1 -41 -5 -14 -5 -29 -2 -40 6
-11 8 -31 15 -45 15 -15 0 -29 6 -32 13 -8 20 -193 13 -191 -8 1 -8 -3 -15 -8
-15 -7 0 -8 202 -5 588 6 544 12 690 30 709 39 38 356 41 492 4z m5592 -735
c-30 -45 -198 -229 -359 -391 l-168 -169 0 -58 c0 -31 3 -59 8 -61 4 -3 63 45
131 105 140 123 302 248 361 278 l40 20 0 -121 0 -121 -36 -53 c-59 -89 -56
-156 6 -170 30 -7 31 -8 28 -58 l-3 -50 -64 -35 c-118 -65 -191 -43 -191 57 0
78 70 204 202 362 27 33 48 63 45 65 -3 3 -20 -2 -37 -11 -96 -50 -162 -105
-338 -282 -177 -178 -196 -194 -224 -191 -45 4 -68 42 -80 129 -16 109 13 215
87 324 74 109 349 437 487 580 l113 118 3 -123 c2 -92 -1 -128 -11 -144z
m-954 -645 c-21 -18 -71 -52 -111 -76 l-74 -43 47 -8 c48 -7 125 -1 158 12 16
6 18 2 15 -32 -3 -38 -5 -40 -83 -79 -75 -38 -84 -40 -170 -40 -105 0 -146 17
-226 92 -38 35 -50 55 -58 94 -22 100 -17 119 43 169 29 25 124 108 211 185
86 77 163 145 169 150 7 6 16 22 19 36 9 34 44 79 71 88 21 8 21 8 24 -253 l3
-261 -38 -34z m-2813 426 l0 -74 -102 -43 c-173 -72 -321 -148 -379 -194 -92
-72 -122 -163 -72 -218 23 -26 43 -23 127 21 97 50 200 135 325 268 l101 107
0 -102 c0 -71 -4 -110 -14 -125 -27 -42 -29 -85 -7 -128 16 -30 21 -58 21
-118 l0 -79 -49 -21 c-59 -25 -89 -26 -118 -6 -47 33 -36 149 27 284 17 35 29
65 28 67 -2 1 -57 -47 -123 -108 -239 -218 -293 -249 -362 -207 -35 22 -93
104 -111 158 -16 46 -15 134 2 174 34 83 277 259 464 338 66 28 211 76 235 78
4 1 7 -32 7 -72z m1980 1 l0 -73 -73 -29 c-256 -102 -453 -220 -492 -297 -22
-41 -19 -105 5 -129 25 -25 43 -25 97 0 85 38 171 106 316 249 l147 145 0 -97
c0 -79 -4 -102 -20 -129 -26 -43 -26 -107 0 -141 16 -20 20 -40 20 -104 l0
-79 -35 -17 c-62 -30 -106 -32 -139 -6 -27 22 -28 25 -24 93 4 51 15 95 41
156 19 47 34 87 32 89 -2 1 -65 -54 -141 -123 -158 -145 -225 -194 -276 -202
-31 -5 -41 -1 -75 30 -51 45 -102 141 -110 203 -8 76 11 128 70 187 96 95 291
219 437 278 62 26 184 64 213 67 4 1 7 -32 7 -71z m-1256 -71 c26 -19 16 -33
-107 -155 -108 -107 -150 -170 -131 -200 6 -9 15 -17 21 -19 5 -2 49 31 97 74
163 145 211 185 283 234 40 27 75 49 78 49 3 0 5 -27 5 -59 0 -42 -4 -60 -15
-64 -34 -14 -155 -101 -221 -160 -39 -35 -115 -111 -168 -169 -110 -119 -145
-141 -177 -112 -43 39 -62 94 -67 189 l-4 90 40 60 c53 80 157 192 211 227 50
31 123 38 155 15z m-756 -69 c-57 -73 -240 -253 -301 -298 -87 -62 -181 -104
-206 -91 -28 15 -35 62 -16 107 29 70 83 114 235 190 88 44 296 133 313 134 5
0 -6 -19 -25 -42z m1977 0 c-118 -128 -237 -245 -288 -285 -61 -47 -178 -113
-202 -113 -24 0 -45 31 -45 67 0 78 77 156 230 233 89 45 312 140 330 140 8 0
-2 -17 -25 -42z m-988 -265 c-26 -52 -28 -79 -7 -106 15 -19 20 -40 20 -86 l0
-61 -50 -25 c-100 -51 -170 -21 -170 73 0 62 23 107 130 257 l85 118 3 -71 c2
-47 -2 -81 -11 -99z m-3097 37 c0 -5 -7 -7 -15 -4 -8 4 -15 8 -15 10 0 2 7 4
15 4 8 0 15 -4 15 -10z m-50 -56 c30 -3 66 -6 80 -6 14 1 47 -6 74 -14 59 -17
69 -17 61 -4 -4 7 6 10 29 8 19 -1 33 -5 31 -8 -9 -15 18 -34 81 -56 78 -26
88 -28 79 -14 -13 21 22 9 45 -15 12 -13 26 -22 31 -20 12 8 143 -26 160 -41
9 -8 26 -16 38 -17 11 -1 21 -4 21 -8 0 -20 -126 -114 -205 -154 -131 -66
-193 -78 -350 -72 -103 3 -147 10 -210 30 -125 41 -116 25 -123 230 l-5 177
54 -5 c30 -3 79 -8 109 -11z m2004 -79 c-27 -81 -31 -170 -9 -202 l16 -22
-103 5 c-57 3 -119 5 -139 4 -19 0 -46 3 -59 8 l-24 9 24 13 c34 17 138 102
234 189 43 39 80 70 81 69 2 -2 -7 -34 -21 -73z m-1209 -134 c-3 -5 4 -12 15
-16 29 -9 25 -19 -27 -64 -128 -109 -292 -168 -490 -178 -90 -4 -123 -3 -123
5 0 8 25 12 73 12 153 0 349 79 472 191 58 52 97 76 80 50z m355 -57 c25 -15
25 -15 -10 -8 -40 7 -65 24 -34 24 10 -1 30 -7 44 -16z m447 -29 c0 -8 -4 -15
-9 -15 -4 0 -8 4 -8 9 0 5 -8 12 -17 14 -12 3 -9 5 8 6 17 1 26 -4 26 -14z
m66 8 c-7 -2 -19 -2 -25 0 -7 3 -2 5 12 5 14 0 19 -2 13 -5z m435 -87 c9 -10
-42 -6 -58 4 -11 7 -6 8 19 5 18 -2 36 -6 39 -9z m379 -62 c-3 -3 -12 -4 -19
-1 -8 3 -5 6 6 6 11 1 17 -2 13 -5z m1276 -21 c9 -3 17 -9 17 -14 0 -13 -13
-11 -35 5 -10 7 -28 11 -39 9 -17 -4 -18 -3 -6 6 8 6 22 8 30 5 8 -4 23 -9 33
-11z m1056 8 c10 -6 -13 -11 -67 -13 -84 -3 -101 8 -22 15 25 2 52 4 60 5 8 1
21 -2 29 -7z"/>
<path d="M932 3095 c-24 -7 -62 -26 -85 -42 -42 -29 -117 -133 -117 -162 0 -9
12 7 26 34 57 111 139 164 274 175 l85 7 -70 1 c-38 0 -89 -5 -113 -13z"/>
<path d="M1125 3090 c3 -5 3 -20 0 -32 -6 -23 -10 -24 -70 -20 -91 6 -131 -4
-175 -44 -56 -51 -80 -106 -80 -187 0 -78 14 -118 60 -171 32 -36 87 -72 96
-63 3 2 -9 10 -26 17 -41 17 -94 80 -108 129 -36 120 7 244 100 292 35 18 55
21 124 17 l82 -4 6 29 c8 41 8 47 -5 47 -5 0 -8 -4 -4 -10z"/>
<path d="M990 2875 l0 -55 78 2 77 2 -73 3 -74 4 4 49 c1 28 0 50 -4 50 -5 0
-8 -25 -8 -55z"/>
<path d="M1530 2880 l0 -49 -57 -4 -58 -3 63 -2 62 -2 0 55 c0 30 -2 55 -5 55
-3 0 -5 -22 -5 -50z"/>
<path d="M722 2845 c0 -16 2 -22 5 -12 2 9 2 23 0 30 -3 6 -5 -1 -5 -18z"/>
<path d="M1312 2723 l2 -118 3 112 c3 106 5 112 26 116 18 4 18 4 -5 6 l-28 1
2 -117z"/>
<path d="M1220 2457 l5 -372 3 364 c1 201 -1 368 -5 372 -5 5 -6 -159 -3 -364z"/>
<path d="M722 2735 c0 -16 2 -22 5 -12 2 9 2 23 0 30 -3 6 -5 -1 -5 -18z"/>
<path d="M730 2689 c0 -24 53 -101 93 -136 48 -42 122 -63 216 -62 111 1 125
7 129 52 l3 38 -38 -8 c-21 -4 -67 -7 -103 -7 -55 1 -60 0 -30 -7 33 -8 102
-5 143 7 13 4 17 -1 17 -21 0 -34 -31 -45 -124 -45 -138 0 -229 49 -280 152
-14 29 -26 45 -26 37z"/>
<path d="M1310 2130 l0 -180 -44 0 c-43 0 -45 1 -49 33 -4 31 -4 31 -5 -5 l-2
-38 55 0 55 0 0 185 c0 102 -2 185 -5 185 -3 0 -5 -81 -5 -180z"/>
<path d="M5670 2133 c-36 -32 -114 -98 -173 -147 -58 -49 -105 -92 -102 -96 3
-4 21 -11 41 -15 27 -5 51 -22 90 -62 l53 -56 43 19 c128 57 158 140 125 342
l-12 73 -65 -58z m69 -71 c13 -94 6 -152 -24 -198 -18 -28 -101 -84 -123 -84
-8 0 -36 22 -62 49 -28 29 -59 51 -78 56 -18 3 -32 10 -32 13 0 4 54 51 119
106 66 54 130 109 142 122 37 40 45 31 58 -64z"/>
<path d="M7118 1513 c7 -3 16 -2 19 1 4 3 -2 6 -13 5 -11 0 -14 -3 -6 -6z"/>
<path d="M6735 1490 c-14 -6 -4 -9 37 -9 31 -1 60 4 63 9 8 12 -71 12 -100 0z"/>
<path d="M6555 1459 c58 -18 131 -17 120 1 -3 5 3 11 12 13 10 3 -29 5 -87 5
l-105 0 60 -19z"/>
<path d="M3738 1353 c6 -2 18 -2 25 0 6 3 1 5 -13 5 -14 0 -19 -2 -12 -5z"/>
<path d="M415 1146 c-145 -46 -232 -177 -182 -276 44 -87 200 -103 280 -29
l32 30 -39 -26 c-29 -19 -52 -25 -92 -25 -47 0 -55 3 -79 32 -24 28 -27 38
-22 79 7 55 44 134 79 166 69 65 173 52 193 -24 7 -27 8 -25 21 22 17 63 17
70 0 56 -10 -8 -26 -9 -57 -2 -56 13 -85 13 -134 -3z"/>
<path d="M2562 1151 c-22 -14 -10 -56 16 -59 23 -3 52 13 52 29 0 12 -30 39
-43 39 -7 0 -18 -4 -25 -9z"/>
<path d="M3693 1145 c-41 -18 -73 -69 -73 -117 0 -35 -3 -39 -53 -63 -88 -41
-115 -89 -78 -137 30 -37 83 -44 155 -20 56 19 57 19 97 -1 35 -17 46 -18 78
-8 50 15 73 39 32 33 -30 -4 -81 22 -81 41 0 6 21 33 47 59 l47 48 -40 0 c-37
0 -41 -2 -37 -22 5 -28 -19 -64 -36 -54 -13 8 -41 71 -41 92 0 8 15 20 33 27
65 28 88 77 52 113 -27 27 -55 30 -102 9z m62 -24 c3 -10 2 -27 -1 -37 -10
-27 -45 -64 -55 -58 -13 8 -11 88 3 102 18 18 46 14 53 -7z m-95 -219 l29 -63
-25 -9 c-76 -29 -137 58 -82 117 12 13 28 22 35 21 7 -2 27 -31 43 -66z"/>
<path d="M5310 1151 c-30 -5 -35 -9 -32 -31 2 -14 -4 -42 -13 -63 -14 -34 -17
-36 -39 -26 -75 34 -208 -121 -177 -204 19 -50 85 -40 130 20 l21 28 -6 -31
c-11 -59 49 -69 98 -17 22 25 22 25 1 12 -12 -7 -25 -10 -28 -7 -4 4 16 73 44
155 51 148 58 174 44 172 -5 -1 -24 -4 -43 -8z m-86 -127 c22 -8 20 -47 -5
-97 -27 -54 -58 -87 -81 -87 -35 0 -14 96 34 154 33 40 30 38 52 30z"/>
<path d="M5456 1144 c-20 -19 -20 -28 -2 -44 24 -19 61 -8 64 19 6 38 -33 54
-62 25z"/>
<path d="M6567 1140 c-96 -30 -161 -92 -178 -171 -26 -116 68 -198 198 -171
29 6 66 21 82 33 40 29 33 36 -10 10 -46 -28 -117 -28 -154 1 -25 20 -27 25
-23 88 3 54 9 76 36 116 56 88 151 120 206 69 14 -13 26 -34 26 -46 0 -31 6
-22 23 39 16 51 16 52 -4 42 -13 -8 -31 -8 -57 0 -51 14 -77 12 -145 -10z"/>
<path d="M4181 1128 c-5 -13 -12 -34 -16 -48 -7 -24 -6 -23 28 8 24 23 48 35
76 39 l41 6 -49 -139 c-65 -183 -61 -174 -85 -184 -14 -6 6 -9 62 -9 75 -1 82
1 68 14 -14 14 -10 31 37 165 44 128 55 150 72 150 29 0 63 -26 67 -53 3 -17
7 -11 20 26 l17 47 -165 0 c-161 0 -165 0 -173 -22z"/>
<path d="M1387 1070 c-21 -15 -52 -34 -69 -41 -29 -12 -29 -13 -10 -20 21 -8
21 -8 -8 -95 -17 -48 -30 -92 -30 -96 0 -5 11 -13 24 -19 28 -13 90 11 101 39
5 13 3 13 -14 -2 -37 -33 -41 -9 -12 77 23 67 33 85 57 97 27 13 27 15 7 18
-19 3 -20 7 -12 34 5 18 8 33 6 34 -1 1 -19 -10 -40 -26z"/>
<path d="M2404 1074 c-17 -13 -49 -33 -70 -44 -21 -10 -31 -19 -22 -20 28 0
29 -15 3 -84 -31 -83 -32 -122 -5 -131 24 -8 92 23 99 45 3 11 0 10 -13 -3
-43 -43 -46 -12 -8 93 22 60 31 76 50 78 25 4 30 22 6 22 -13 0 -15 7 -10 35
4 19 6 35 4 35 -2 -1 -17 -12 -34 -26z"/>
<path d="M799 1023 c23 -19 24 -22 12 -68 -14 -54 -43 -115 -66 -139 -25 -24
2 -20 51 9 51 30 84 80 86 130 2 44 -23 72 -72 81 l-35 7 24 -20z"/>
<path d="M1015 1031 c-35 -5 -40 -9 -37 -31 1 -14 -11 -65 -27 -113 l-30 -88
36 3 c32 3 37 7 53 50 30 78 104 157 127 135 3 -3 -7 -42 -22 -86 -14 -44 -24
-85 -20 -91 12 -20 64 -10 93 18 15 15 20 21 10 13 -31 -25 -33 -3 -5 79 14
44 24 86 21 94 -16 41 -80 20 -137 -43 -35 -39 -37 -40 -31 -14 4 15 11 38 15
51 11 29 11 32 2 31 -5 -1 -26 -5 -48 -8z"/>
<path d="M1525 1031 c-23 -5 -29 -11 -27 -27 1 -11 -9 -59 -23 -107 -14 -48
-25 -89 -25 -92 0 -3 15 -5 33 -5 31 0 35 4 45 39 16 51 61 131 78 138 8 3 21
0 29 -7 20 -17 45 3 45 36 0 55 -52 34 -100 -41 -19 -30 -36 -52 -37 -51 -2 2
5 31 16 65 20 64 20 64 -34 52z"/>
<path d="M1803 1021 c-68 -32 -125 -137 -104 -194 19 -50 71 -43 123 17 l27
31 -6 -36 c-4 -31 -2 -38 15 -43 25 -8 62 6 87 34 l20 23 -22 -14 c-12 -7 -25
-10 -29 -7 -3 4 8 48 25 98 17 50 31 93 31 95 0 10 -59 5 -65 -5 -4 -7 -14 -5
-28 5 -26 18 -23 19 -74 -4z m77 -38 c0 -58 -54 -143 -92 -143 -26 0 -23 53 6
116 37 80 86 95 86 27z"/>
<path d="M2199 1029 c23 -9 23 -10 6 -29 -22 -25 -9 -43 26 -38 53 7 20 79
-36 77 -18 0 -17 -1 4 -10z"/>
<path d="M2540 1031 c-31 -5 -35 -9 -32 -32 2 -14 -8 -56 -22 -94 -31 -82 -32
-91 -5 -105 25 -14 68 1 96 32 18 21 18 21 -8 5 -14 -10 -28 -14 -31 -11 -4 3
9 51 28 107 19 55 34 102 34 104 0 4 -14 2 -60 -6z"/>
<path d="M2727 1033 c-28 -3 -37 -8 -33 -18 3 -8 -10 -59 -29 -115 l-34 -100
38 0 c35 0 39 3 45 33 12 62 110 177 132 155 3 -4 -6 -41 -19 -84 -14 -43 -23
-84 -20 -91 9 -23 61 -15 91 15 15 15 20 21 10 13 -31 -24 -32 -4 -5 77 32 92
33 98 7 112 -27 14 -79 -10 -120 -56 -16 -19 -32 -34 -34 -34 -3 0 1 19 9 41
17 47 18 60 8 57 -5 -1 -25 -3 -46 -5z"/>
<path d="M3086 1030 c-72 -23 -100 -94 -51 -126 l26 -17 -30 -18 c-40 -24 -46
-37 -27 -58 15 -17 14 -19 -24 -34 -29 -11 -40 -21 -40 -36 0 -26 47 -51 92
-50 l33 0 -35 12 c-45 15 -52 49 -16 72 23 15 29 15 80 1 30 -9 58 -21 61 -26
10 -16 -13 -48 -37 -53 -22 -4 -22 -4 2 -6 42 -2 90 34 90 67 0 39 -25 59 -96
75 -82 19 -80 40 6 48 94 8 147 51 126 104 -3 10 1 15 14 15 43 0 26 18 -23
24 -28 3 -68 8 -87 10 -19 3 -48 1 -64 -4z m78 -6 c20 -8 20 -33 0 -84 -16
-40 -49 -60 -73 -45 -23 14 -8 87 24 118 18 19 25 20 49 11z"/>
<path d="M4565 1031 c-21 -5 -29 -12 -27 -23 1 -10 -9 -57 -23 -105 -14 -48
-25 -91 -25 -96 0 -4 14 -7 31 -5 26 3 33 10 53 59 38 95 85 145 99 107 7 -21
42 5 45 34 3 28 -17 42 -44 31 -9 -3 -34 -33 -55 -66 -43 -66 -46 -65 -24 7 8
27 15 53 15 58 0 9 -1 9 -45 -1z"/>
<path d="M4845 1023 c-46 -24 -65 -44 -91 -95 -29 -58 -30 -92 -3 -119 26 -26
53 -18 99 29 19 20 26 28 14 19 -24 -20 -51 -22 -57 -4 -7 22 13 91 39 130 24
36 32 41 64 38 13 -2 13 -1 0 8 -20 14 -29 13 -65 -6z"/>
<path d="M5437 1033 c-32 -4 -36 -7 -32 -26 3 -12 -6 -55 -20 -96 -30 -90 -31
-97 -5 -111 26 -14 84 10 100 42 l12 23 -22 -23 c-38 -40 -42 -12 -11 79 16
46 32 92 36 102 5 11 3 16 -6 15 -8 -1 -31 -3 -52 -5z"/>
<path d="M5625 1031 c-36 -5 -40 -9 -37 -32 2 -14 -11 -63 -28 -109 -16 -46
-30 -85 -30 -88 0 -2 16 -2 36 0 33 3 38 7 54 50 30 78 104 157 127 135 3 -3
-7 -42 -22 -86 -14 -44 -24 -85 -20 -91 12 -20 64 -10 93 18 15 15 20 21 10
13 -31 -25 -33 -3 -5 82 32 99 32 94 7 107 -28 15 -77 -8 -122 -59 -42 -46
-45 -43 -23 19 17 49 18 50 8 49 -5 -1 -26 -5 -48 -8z"/>
<path d="M5975 1025 c-22 -8 -45 -22 -52 -32 -22 -29 -16 -69 13 -90 l26 -20
-30 -12 c-37 -16 -48 -38 -27 -61 14 -15 12 -18 -25 -33 -70 -27 -48 -77 38
-83 26 -1 36 0 22 3 -54 11 -67 51 -25 79 22 14 29 14 80 0 47 -14 55 -20 55
-40 0 -17 -8 -27 -27 -34 -26 -10 -26 -10 -5 -11 30 -1 78 24 86 44 19 51 -9
80 -97 100 -74 17 -70 38 10 46 88 8 143 51 128 99 -5 15 -2 20 14 20 46 0 26
18 -27 24 -31 3 -70 8 -87 11 -16 3 -48 -2 -70 -10z m95 -10 c24 -29 -23 -125
-62 -125 -24 0 -32 21 -24 66 12 59 59 92 86 59z"/>
<path d="M6958 1030 c38 -16 26 -99 -28 -184 -30 -46 -30 -47 -8 -41 35 10 71
38 96 75 46 69 41 123 -13 146 -19 8 -42 14 -52 13 -14 0 -13 -2 5 -9z"/>
<path d="M715 1013 c-47 -25 -66 -45 -87 -91 -27 -59 -17 -99 28 -118 18 -8
41 -14 51 -14 14 0 13 3 -6 16 -19 14 -22 23 -18 50 8 47 57 153 76 164 29 17
-11 11 -44 -7z"/>
<path d="M2105 1011 c-70 -42 -110 -124 -87 -176 23 -50 126 -53 184 -5 23 19
23 19 -24 2 -47 -16 -47 -16 -72 8 -15 13 -26 33 -26 44 1 34 36 101 65 124
23 18 25 22 9 22 -11 0 -33 -8 -49 -19z"/>
<path d="M4933 1015 c-7 -8 -13 -25 -13 -37 0 -13 -8 -40 -18 -59 -24 -47 -28
-115 -7 -123 20 -7 75 15 95 39 14 17 14 17 -7 4 -12 -7 -25 -10 -29 -6 -5 5
28 123 53 185 7 17 -59 15 -74 -3z"/>
<path d="M6885 1018 c-61 -34 -105 -96 -105 -151 0 -41 23 -65 71 -73 27 -4
31 -3 17 6 -35 22 -14 129 38 197 26 34 17 43 -21 21z"/>
<path d="M7082 858 c-33 -33 9 -80 54 -59 41 18 25 71 -21 71 -12 0 -26 -5
-33 -12z"/>
<path d="M1923 505 c-62 -27 -71 -94 -16 -131 17 -12 58 -26 91 -33 34 -7 67
-20 77 -31 16 -18 17 -21 1 -45 -14 -22 -24 -25 -72 -25 -44 0 -59 5 -78 23
-13 13 -25 29 -28 37 -6 20 -38 4 -38 -19 0 -23 34 -59 68 -72 63 -24 169 -2
192 40 34 65 -5 111 -113 135 -89 20 -111 42 -77 76 32 32 95 27 130 -10 33
-35 60 -39 60 -10 0 61 -117 100 -197 65z"/>
<path d="M2374 501 c-112 -51 -115 -228 -4 -283 72 -36 185 -13 224 46 22 35
31 106 17 148 -30 90 -142 132 -237 89z m147 -44 c84 -56 53 -203 -46 -221
-42 -8 -96 13 -119 45 -20 28 -21 114 -2 148 30 53 109 67 167 28z"/>
<path d="M3110 498 c-103 -52 -109 -210 -11 -275 69 -46 190 -23 219 43 24 52
-10 60 -50 10 -32 -40 -76 -51 -123 -32 -52 22 -68 55 -63 126 6 78 27 101 97
108 47 4 53 2 80 -27 46 -49 90 -37 49 14 -44 57 -125 70 -198 33z"/>
<path d="M4628 509 c-10 -5 -20 -25 -24 -43 -4 -22 -13 -36 -25 -39 -25 -7
-24 -27 1 -27 19 0 20 -7 20 -100 l0 -100 25 0 25 0 0 100 0 100 25 0 c16 0
25 6 25 15 0 9 -10 15 -26 15 -21 0 -25 4 -22 23 2 16 11 23 31 25 19 2 27 9
27 23 0 15 -7 19 -32 19 -18 0 -41 -5 -50 -11z"/>
<path d="M1640 354 l0 -155 23 3 c22 3 22 6 25 156 l3 152 -26 0 -25 0 0 -156z"/>
<path d="M4380 490 c0 -13 7 -20 20 -20 13 0 20 7 20 20 0 13 -7 20 -20 20
-13 0 -20 -7 -20 -20z"/>
<path d="M4830 490 c0 -15 7 -20 25 -20 18 0 25 5 25 20 0 15 -7 20 -25 20
-18 0 -25 -5 -25 -20z"/>
<path d="M5580 458 c0 -40 -3 -49 -12 -40 -15 15 -82 16 -109 2 -58 -32 -64
-143 -10 -192 34 -31 96 -38 120 -16 11 10 14 10 18 1 3 -7 13 -13 24 -13 18
0 19 9 19 155 l0 155 -25 0 c-23 0 -25 -3 -25 -52z m-19 -77 c19 -15 24 -29
24 -64 0 -76 -59 -113 -105 -67 -30 30 -28 113 2 134 30 21 51 20 79 -3z"/>
<path d="M4158 489 c-10 -5 -18 -21 -18 -34 0 -16 -6 -25 -15 -25 -8 0 -15 -7
-15 -15 0 -8 7 -15 15 -15 12 0 15 -15 15 -78 0 -94 15 -122 65 -122 28 0 32
3 28 20 -3 11 -14 20 -24 20 -17 0 -19 8 -19 80 0 73 2 80 20 80 11 0 20 7 20
15 0 8 -9 15 -20 15 -16 0 -20 7 -20 35 0 37 -5 40 -32 24z"/>
<path d="M3524 412 c-12 -9 -27 -27 -33 -39 -14 -27 -14 -98 -1 -124 16 -28
63 -49 115 -49 39 0 52 5 78 31 l31 32 -23 9 c-19 6 -27 3 -43 -17 -32 -41
-108 -26 -121 25 -5 19 -1 20 89 20 89 0 94 1 94 21 0 34 -29 85 -56 98 -37
17 -106 13 -130 -7z m114 -28 c42 -29 28 -44 -43 -44 -50 0 -65 3 -65 14 0 19
38 46 65 46 11 0 31 -7 43 -16z"/>
<path d="M3870 315 c0 -108 1 -115 20 -115 18 0 20 7 20 69 0 98 11 121 55
121 28 0 35 4 35 20 0 16 -7 20 -33 20 -18 0 -38 -5 -45 -12 -9 -9 -12 -9 -12
0 0 7 -9 12 -20 12 -19 0 -20 -7 -20 -115z"/>
<path d="M4380 315 c0 -108 1 -115 20 -115 19 0 20 7 20 115 0 108 -1 115 -20
115 -19 0 -20 -7 -20 -115z"/>
<path d="M4830 315 l0 -115 25 0 25 0 0 115 0 115 -25 0 -25 0 0 -115z"/>
<path d="M5069 401 c-25 -26 -29 -37 -29 -86 0 -49 4 -60 29 -86 25 -25 37
-29 84 -29 56 0 107 26 107 55 0 26 -32 26 -56 0 -13 -14 -34 -25 -49 -25 -25
0 -75 39 -75 59 0 6 39 11 93 13 l92 3 -3 35 c-4 54 -49 90 -113 90 -43 0 -55
-5 -80 -29z m131 -21 c33 -33 24 -40 -50 -40 -67 0 -70 1 -60 20 23 42 78 52
110 20z"/>
</g>
</svg>
