<?xml version="1.0" encoding="UTF-8"?>
<svg width="700pt" height="700pt" fill="white" version="1.1" viewBox="0 0 700 700" xmlns="http://www.w3.org/2000/svg" xmlns:xlink="http://www.w3.org/1999/xlink">
 <defs>
  <symbol id="n" overflow="visible">
   <path d="m34.734-2.0781c-1.7812 0.92969-3.6484 1.625-5.5938 2.0938-1.9375 0.47656-3.9648 0.71875-6.0781 0.71875-6.293 0-11.281-1.7578-14.969-5.2812-3.6797-3.5195-5.5156-8.2891-5.5156-14.312 0-6.0508 1.8359-10.832 5.5156-14.344 3.6875-3.5195 8.6758-5.2812 14.969-5.2812 2.1133 0 4.1406 0.23438 6.0781 0.70312 1.9453 0.46875 3.8125 1.1719 5.5938 2.1094v7.8125c-1.8047-1.2266-3.5859-2.1289-5.3438-2.7031-1.75-0.57031-3.5938-0.85938-5.5312-0.85938-3.4805 0-6.2188 1.1172-8.2188 3.3438-1.9922 2.2305-2.9844 5.3047-2.9844 9.2188 0 3.8984 0.99219 6.9609 2.9844 9.1875 2 2.2305 4.7383 3.3438 8.2188 3.3438 1.9375 0 3.7812-0.28516 5.5312-0.85938 1.7578-0.57031 3.5391-1.4766 5.3438-2.7188z"/>
  </symbol>
  <symbol id="h" overflow="visible">
   <path d="m25.422-20.641c-0.79297-0.36328-1.5859-0.63281-2.375-0.8125-0.78125-0.17578-1.5703-0.26562-2.3594-0.26562-2.3359 0-4.1328 0.74609-5.3906 2.2344-1.25 1.4922-1.875 3.6328-1.875 6.4219v13.062h-9.0625v-28.359h9.0625v4.6562c1.1641-1.8516 2.5039-3.207 4.0156-4.0625 1.5078-0.85156 3.3164-1.2812 5.4219-1.2812 0.3125 0 0.64453 0.015625 1 0.046875 0.35156 0.023438 0.86328 0.074219 1.5312 0.15625z"/>
  </symbol>
  <symbol id="b" overflow="visible">
   <path d="m32.672-14.25v2.5781h-21.203c0.21875 2.125 0.98438 3.7188 2.2969 4.7812 1.3203 1.0625 3.1641 1.5938 5.5312 1.5938 1.9062 0 3.8594-0.28125 5.8594-0.84375s4.0547-1.4141 6.1719-2.5625v6.9844c-2.1484 0.8125-4.293 1.4219-6.4375 1.8281-2.1484 0.41406-4.293 0.625-6.4375 0.625-5.125 0-9.1094-1.3008-11.953-3.9062-2.8438-2.6133-4.2656-6.2734-4.2656-10.984 0-4.625 1.3945-8.2578 4.1875-10.906 2.7891-2.6562 6.6328-3.9844 11.531-3.9844 4.457 0 8.0234 1.3438 10.703 4.0312 2.6758 2.6875 4.0156 6.2773 4.0156 10.766zm-9.3281-3.0156c0-1.7266-0.50781-3.1172-1.5156-4.1719-1-1.0508-2.3086-1.5781-3.9219-1.5781-1.7617 0-3.1875 0.49609-4.2812 1.4844-1.0938 0.98047-1.7773 2.4023-2.0469 4.2656z"/>
  </symbol>
  <symbol id="a" overflow="visible">
   <path d="m17.062-12.766c-1.8867 0-3.3086 0.32422-4.2656 0.96875-0.94922 0.63672-1.4219 1.5781-1.4219 2.8281 0 1.1562 0.37891 2.0586 1.1406 2.7031 0.76953 0.64844 1.8359 0.96875 3.2031 0.96875 1.707 0 3.1445-0.60938 4.3125-1.8281 1.1641-1.2266 1.75-2.7578 1.75-4.5938v-1.0469zm13.859-3.4219v16.188h-9.1406v-4.2031c-1.2188 1.7188-2.5898 2.9766-4.1094 3.7656-1.5234 0.78125-3.3711 1.1719-5.5469 1.1719-2.9375 0-5.3242-0.85156-7.1562-2.5625-1.8242-1.7188-2.7344-3.9453-2.7344-6.6875 0-3.3203 1.1406-5.7578 3.4219-7.3125 2.2891-1.5508 5.8828-2.3281 10.781-2.3281h5.3438v-0.70312c0-1.4375-0.57031-2.4883-1.7031-3.1562-1.125-0.66406-2.8906-1-5.2969-1-1.9375 0-3.7461 0.19531-5.4219 0.57812-1.668 0.38672-3.2188 0.96875-4.6562 1.75v-6.9062c1.9453-0.47656 3.8984-0.83594 5.8594-1.0781 1.957-0.25 3.9141-0.375 5.875-0.375 5.1133 0 8.8047 1.0117 11.078 3.0312 2.2695 2.0117 3.4062 5.2891 3.4062 9.8281z"/>
  </symbol>
  <symbol id="g" overflow="visible">
   <path d="m14.25-36.406v8.0469h9.3438v6.4844h-9.3438v12.031c0 1.3125 0.25781 2.2031 0.78125 2.6719 0.53125 0.46094 1.5703 0.6875 3.125 0.6875h4.6562v6.4844h-7.7656c-3.5859 0-6.125-0.74219-7.625-2.2344-1.4922-1.5-2.2344-4.0352-2.2344-7.6094v-12.031h-4.5v-6.4844h4.5v-8.0469z"/>
  </symbol>
  <symbol id="f" overflow="visible">
   <path d="m23.656-24.203v-15.203h9.1094v39.406h-9.1094v-4.1094c-1.25 1.6797-2.6328 2.9062-4.1406 3.6875-1.5 0.76953-3.2344 1.1562-5.2031 1.1562-3.5 0-6.375-1.3828-8.625-4.1562-2.2422-2.7812-3.3594-6.3594-3.3594-10.734s1.1172-7.9453 3.3594-10.719c2.25-2.7812 5.125-4.1719 8.625-4.1719 1.957 0 3.6914 0.39844 5.2031 1.1875 1.5078 0.78125 2.8906 2 4.1406 3.6562zm-5.9844 18.359c1.9453 0 3.4297-0.70703 4.4531-2.125 1.0195-1.4258 1.5312-3.4883 1.5312-6.1875 0-2.6953-0.51172-4.7539-1.5312-6.1719-1.0234-1.4141-2.5078-2.125-4.4531-2.125-1.9297 0-3.4023 0.71094-4.4219 2.125-1.0234 1.418-1.5312 3.4766-1.5312 6.1719 0 2.6992 0.50781 4.7617 1.5312 6.1875 1.0195 1.418 2.4922 2.125 4.4219 2.125z"/>
  </symbol>
  <symbol id="e" overflow="visible">
   <path d="m19.453-5.8438c1.9375 0 3.4141-0.70703 4.4375-2.125 1.0195-1.4258 1.5312-3.4883 1.5312-6.1875 0-2.6953-0.51172-4.7539-1.5312-6.1719-1.0234-1.4141-2.5-2.125-4.4375-2.125-1.9492 0-3.4453 0.71484-4.4844 2.1406-1.0312 1.418-1.5469 3.4688-1.5469 6.1562s0.51562 4.7461 1.5469 6.1719c1.0391 1.4297 2.5352 2.1406 4.4844 2.1406zm-6.0312-18.359c1.25-1.6562 2.6328-2.875 4.1562-3.6562 1.5195-0.78906 3.2656-1.1875 5.2344-1.1875 3.5 0 6.3672 1.3906 8.6094 4.1719 2.25 2.7734 3.375 6.3438 3.375 10.719s-1.125 7.9531-3.375 10.734c-2.2422 2.7734-5.1094 4.1562-8.6094 4.1562-1.9688 0-3.7148-0.39062-5.2344-1.1719-1.5234-0.78906-2.9062-2.0156-4.1562-3.6719v4.1094h-9.0625v-39.406h9.0625z"/>
  </symbol>
  <symbol id="d" overflow="visible">
   <path d="m0.64062-28.359h9.0625l7.6094 19.25 6.4844-19.25h9.0781l-11.938 31.047c-1.1992 3.1562-2.5938 5.3594-4.1875 6.6094-1.5938 1.2578-3.6992 1.8906-6.3125 1.8906h-5.25v-5.9531h2.8438c1.5312 0 2.6445-0.24609 3.3438-0.73438 0.70703-0.49219 1.2539-1.3672 1.6406-2.625l0.25-0.78125z"/>
  </symbol>
  <symbol id="c" overflow="visible">
   <path d="m27.703-6.8906h-15.25l-2.4062 6.8906h-9.7969l14-37.812h11.625l14 37.812h-9.7969zm-12.812-7.0156h10.359l-5.1719-15.031z"/>
  </symbol>
  <symbol id="m" overflow="visible">
   <path d="m2.9688-28.359h24.734v6.3281l-14.938 15.547h14.938v6.4844h-25.375v-6.3281l14.938-15.547h-14.297z"/>
  </symbol>
  <symbol id="l" overflow="visible">
   <path d="m30.641-23.656c1.1445-1.75 2.5039-3.082 4.0781-4 1.582-0.92578 3.3203-1.3906 5.2188-1.3906 3.25 0 5.7266 1.0078 7.4375 3.0156 1.707 2.0117 2.5625 4.9336 2.5625 8.7656v17.266h-9.125v-14.781c0.019531-0.22656 0.035156-0.45703 0.046875-0.6875 0.007813-0.23828 0.015625-0.57812 0.015625-1.0156 0-2.0078-0.29688-3.4609-0.89062-4.3594-0.59375-0.90625-1.5469-1.3594-2.8594-1.3594-1.7188 0-3.0469 0.71094-3.9844 2.125-0.9375 1.418-1.4297 3.4688-1.4688 6.1562v13.922h-9.1094v-14.781c0-3.1445-0.27344-5.1641-0.8125-6.0625-0.54297-0.90625-1.5078-1.3594-2.8906-1.3594-1.7422 0-3.0859 0.71484-4.0312 2.1406-0.9375 1.4297-1.4062 3.4648-1.4062 6.1094v13.953h-9.1094v-28.359h9.1094v4.1562c1.1133-1.6016 2.3906-2.8125 3.8281-3.625 1.4453-0.8125 3.0391-1.2188 4.7812-1.2188 1.957 0 3.6875 0.47656 5.1875 1.4219 1.5 0.94922 2.6406 2.2734 3.4219 3.9688z"/>
  </symbol>
  <symbol id="k" overflow="visible">
   <path d="m4.7656-37.812h9.75v37.812h-9.75z"/>
  </symbol>
  <symbol id="j" overflow="visible">
   <path d="m26.516-27.469v6.875c-1.9492-0.80078-3.8242-1.4062-5.625-1.8125-1.8047-0.40625-3.5078-0.60938-5.1094-0.60938-1.7305 0-3.0117 0.21875-3.8438 0.65625-0.83594 0.42969-1.25 1.0859-1.25 1.9688 0 0.73047 0.3125 1.293 0.9375 1.6875 0.63281 0.38672 1.7734 0.66797 3.4219 0.84375l1.5938 0.23438c4.6328 0.59375 7.7539 1.5703 9.3594 2.9219 1.6016 1.3438 2.4062 3.4609 2.4062 6.3438 0 3.0234-1.1172 5.293-3.3438 6.8125-2.2305 1.5234-5.5547 2.2812-9.9688 2.2812-1.875 0-3.8125-0.15234-5.8125-0.45312-2-0.28906-4.0586-0.72656-6.1719-1.3125v-6.8906c1.8125 0.875 3.6641 1.5312 5.5625 1.9688 1.8945 0.4375 3.8203 0.65625 5.7812 0.65625 1.7812 0 3.1133-0.24219 4-0.73438 0.89453-0.48828 1.3438-1.2109 1.3438-2.1719 0-0.8125-0.30859-1.4141-0.92188-1.8125-0.61719-0.39453-1.8438-0.70312-3.6875-0.92188l-1.5938-0.20312c-4.0312-0.50781-6.8594-1.4453-8.4844-2.8125-1.6172-1.3633-2.4219-3.4414-2.4219-6.2344 0-3 1.0234-5.2227 3.0781-6.6719 2.0625-1.457 5.2227-2.1875 9.4844-2.1875 1.6641 0 3.4141 0.13281 5.25 0.39062 1.8438 0.25 3.8477 0.64844 6.0156 1.1875z"/>
  </symbol>
  <symbol id="i" overflow="visible">
   <path d="m32.875-17.266v17.266h-9.125v-13.172c0-2.4766-0.058594-4.1797-0.17188-5.1094-0.10547-0.92578-0.29297-1.6094-0.5625-2.0469-0.35547-0.59375-0.83984-1.0508-1.4531-1.375-0.60547-0.33203-1.293-0.5-2.0625-0.5-1.8984 0-3.3867 0.73047-4.4688 2.1875-1.0742 1.4609-1.6094 3.4805-1.6094 6.0625v13.953h-9.0625v-39.406h9.0625v15.203c1.3633-1.6562 2.8125-2.875 4.3438-3.6562 1.5391-0.78906 3.2383-1.1875 5.0938-1.1875 3.2812 0 5.7695 1.0078 7.4688 3.0156 1.6953 2.0117 2.5469 4.9336 2.5469 8.7656z"/>
  </symbol>
 </defs>
 <g>
  <path d="m282.28 129.11c2.5938-1.1406 3.8359-4.25 2.6953-6.8438-5.2891-11.926-0.82812-17.836 1.4531-21.051 0.51953-0.62109 0.82812-1.2461 1.0352-1.4531 2.5938-3.9414 4.3555-7.7773 5.1836-11.82 1.2461 1.5547 3.2148 2.2812 5.082 1.8672 1.9688-0.41406 3.6289-1.9688 4.043-3.9414 1.5547-6.9492 1.2461-13.48-0.93359-19.91 3.9414 3.3203 7.5703 7.1562 10.992 11.512 5.8086 7.2578 7.8828 15.348 6.1172 25.512-0.10547 0.72656-0.20703 1.5547-0.20703 2.4883 0 2.0742 1.1406 3.8359 3.0078 4.668 1.8672 0.82812 4.043 0.51953 5.4961-0.72656s2.8008-2.5938 3.9414-4.043c0.3125 6.3242-0.93359 12.34-3.8359 17.941-1.3477 2.5938-0.3125 5.7031 2.2812 6.9492 0.72656 0.41406 1.5547 0.51953 2.3867 0.51953 1.8672 0 3.7344-1.0352 4.668-2.8008 6.0156-11.719 6.6367-24.68 1.9688-38.473l-1.0352-2.3945c-0.72656-2.2812-3.0078-3.9414-5.2891-3.5273-1.5547 0.10547-2.9023 0.93359-3.7344 2.0742-1.4531-5.1836-3.9414-10.164-7.6758-14.727-7.1562-9.2305-15.246-16.281-24.992-21.676l-6.5352-3.2148c-3.3203-1.6602-7.7773 1.2461-7.7773 4.875 0 1.3477 0.51953 2.5938 1.4531 3.5273 3.9414 4.1484 6.7422 8.7109 8.6055 13.895 0.51953 1.3477 0.82812 2.5938 1.1406 3.9414-0.62109-0.51953-1.3477-0.93359-1.9688-1.3477-1.7617-1.1406-4.043-1.1406-5.8086 0-1.7617 1.1406-2.5938 3.3203-2.1797 5.2891 0.20703 1.0352 0.41406 1.8672 0.72656 3.0078 0.82812 4.9766-0.41406 9.6445-3.7344 14.621 0 0.10547-0.72656 0.93359-0.72656 1.0352-2.8008 3.8359-10.371 14-2.6953 31.422 1.1484 2.7031 4.2578 3.9453 6.8516 2.8047z"/>
  <path d="m399.16 388.89h41.066c2.9023 0 5.1836-2.2812 5.1836-5.1836v-46.043c0-2.9023-2.2812-5.1836-5.1836-5.1836h-41.066c-2.9023 0-5.1836 2.2812-5.1836 5.1836l-0.003906 46.039c0 2.8008 2.2812 5.1875 5.1875 5.1875zm5.1836-46.047h30.695v35.676h-30.695z"/>
  <path d="m480.04 388.89h41.066c2.9023 0 5.1836-2.2812 5.1836-5.1836v-46.043c0-2.9023-2.2812-5.1836-5.1836-5.1836h-41.066c-2.9023 0-5.1836 2.2812-5.1836 5.1836v46.039c0 2.8008 2.3867 5.1875 5.1836 5.1875zm5.1875-46.047h30.695v35.676h-30.695z"/>
  <path d="m598.89 500.99h-16.387v-149.96c0-8.3984-6.8438-15.141-15.141-15.141h-21.777c-0.20703 0-0.41406 0.10547-0.51953 0.10547v-27.688c0-2.9023-2.2812-5.1836-5.1836-5.1836l-158.98-0.003906c-2.9023 0-5.1836 2.2812-5.1836 5.1836v27.586h-24.785l-2.9023-52.992h7.1562c2.9023 0 5.1836-2.2812 5.1836-5.1836s-2.2812-5.1836-5.1836-5.1836h-7.6758l-4.7695-88.461h7.2578c2.9023 0 5.1836-2.2812 5.1836-5.1836s-2.2812-5.1836-5.1836-5.1836h-7.8828l-1.7617-32.77c-0.10547-2.6953-2.3867-4.875-5.1836-4.875h-66.371c-2.8008 0-4.9766 2.1797-5.1836 4.875l-1.7617 32.77h-29.762v-25.512c0-2.9023-2.2812-5.1836-5.1836-5.1836s-5.1836 2.2812-5.1836 5.1836v352.8h-12.031l-20.223-406.52c-0.10547-2.8008-2.3867-4.9766-5.1836-4.9766l-30.602-0.003906c-0.93359-2.6953 0.20703-5.8086 2.8008-7.1562 1.4531-0.72656 2.4883-2.1797 2.8008-3.7344 0.3125-1.6602-0.20703-3.2148-1.3477-4.4609-0.72656-0.72266-1.1406-1.3438-1.4531-1.9648-1.7617-3.9414-0.10547-8.5039 3.7344-10.371 2.1797-1.0352 4.4609-1.0352 6.4297-0.10547 1.8672 0.83203 3.9414 0.51953 5.4961-0.72656 1.5547-1.2461 2.1797-3.3203 1.7617-5.1836-0.10156-0.41406-0.20703-1.0391-0.30859-1.6602-0.10547-1.5547-0.20703-2.3828-0.72656-3.3164-1.3477-3.0078-1.4531-6.2227-0.41406-9.3359 1.0352-3.0078 3.3203-5.4961 6.2227-6.8438 5.1836-2.3867 11.098-1.0352 14.52 3.4219 1.0352 1.3477 2.6953 2.0742 4.3555 1.9688 1.6602-0.10547 3.2148-0.93359 4.1484-2.3867 0.51953-0.82812 1.3477-1.4531 2.2812-1.8672 1.4531-0.62109 3.0078-0.72656 4.5625-0.20703 1.4531 0.51953 2.6953 1.6602 3.3203 3.0078 0.62109 1.3477 0.72656 3.0078 0.20703 4.4609s-1.6602 2.6953-3.0078 3.3203c-1.3477 0.62109-2.9023 0.72656-4.3555 0.20703-1.7617-0.51953-3.6289-0.20703-5.082 1.0352-1.3477 1.2461-1.9688 3.1094-1.6602 4.875 1.1406 5.4961-1.7617 11.199-6.8438 13.586-1.1406 0.51953-2.4883 0.82812-3.7344 0.93359-2.6953 0.10547-4.7695 2.2812-4.9766 4.9766-0.10547 2.9023-1.8672 5.4961-4.5625 6.7422-2.5938 1.2461-3.7344 4.3555-2.4883 6.9492 1.2461 2.5938 4.3555 3.7344 6.8438 2.4883 4.875-2.2812 8.3984-6.4297 9.8516-11.406 1.2461-0.3125 2.3867-0.72656 3.4219-1.2461 7.2578-3.4219 12.133-10.578 12.965-18.355 1.6602-0.20703 3.3203-0.62109 4.9766-1.4531 3.9414-1.8672 6.9492-5.082 8.3984-9.125 1.4531-4.043 1.3477-8.5039-0.51953-12.34-1.8672-3.9414-5.082-6.9492-9.2305-8.3984-4.043-1.4531-8.5039-1.3477-12.445 0.51953-0.82812 0.41406-1.5547 0.82812-2.1797 1.2461-6.5352-4.9766-15.246-6.0156-23.023-2.3867-5.5977 2.5898-9.6406 7.1523-11.715 12.855-1.5547 4.2539-1.7617 8.8164-0.72656 12.758-2.0742 0.20703-4.1484 0.72656-6.1172 1.6602-9.125 4.25-13.066 15.035-8.8164 24.059 0 0 0 0.10547 0.10547 0.10547-3.1133 3.5234-4.5625 8.293-4.0469 12.855h-3.7305c-2.8008 0-5.082 2.1797-5.1836 4.9766l-20.223 406.52h-12.863c-2.9023 0-5.1836 2.2812-5.1836 5.1836v25.512c0 2.9023 2.2812 5.1836 5.1836 5.1836h497.78c2.9023 0 5.1836-2.2812 5.1836-5.1836v-25.512c0.003907-2.9023-2.2773-5.1836-5.1797-5.1836zm-53.305-154.73h21.777c2.5938 0 4.7695 2.1797 4.7695 4.7695v149.96h-27.066v-154.83c0.10547 0 0.3125 0.10156 0.51953 0.10156zm-10.891 154.73h-28.828v-83.895c0-2.9023-2.2812-5.1836-5.1836-5.1836s-5.1836 2.2812-5.1836 5.1836v83.895h-29.867l-0.003906-187.5h69.066zm-79.539-187.5v187.5h-30.281v-83.895c0-2.9023-2.2812-5.1836-5.1836-5.1836s-5.1836 2.2812-5.1836 5.1836v83.895h-28.414l-0.003906-187.5zm-79.438 32.77v154.73h-15.867l-1.1406-20.324h6.7422c2.9023 0 5.1836-2.2812 5.1836-5.1836s-2.2812-5.1836-5.1836-5.1836h-7.3633l-4.7695-88.461 7.0508-0.003906c2.9023 0 5.1836-2.2812 5.1836-5.1836s-2.2812-5.1836-5.1836-5.1836h-7.4648l-1.3477-25.199zm-120.09 134.4h92.711l1.1406 20.324h-94.887zm-23.438-197.77h23.852l-4.7695 88.461h-18.977v-88.461zm0 98.934h18.461l-4.7695 88.461h-13.688zm28.832 0h82.031l4.7695 88.461h-91.57zm81.406-10.371h-80.891l4.7695-88.461h71.246zm-5.2891-98.93h-70.207l4.7695-88.461h60.562zm-63.363-126.11h56.52l1.4531 27.273h-59.422zm-12.445 37.645-4.7695 88.461h-24.371v-88.461zm-29.141 296.59h13.066l-1.1406 20.324h-12.031l0.003906-20.324zm-100.38-128.39h60.148l4.7695 96.133h-69.691zm53.613-130.88h-47.184l3.7344-74.977h39.719zm-47.703 10.371h48.223l5.4961 110.13h-59.109zm43.555-95.719h-38.785l1.7617-36.191h35.156zm-54.754 322.62h70.727l2.0742 42.312h-74.98zm467.18 67.824h-487.41v-15.141h487.41z"/>
 </g>
</svg>
