<?xml version="1.0" encoding="UTF-8"?>
<svg width="700pt" height="700pt" fill="white" version="1.1" viewBox="0 0 700 700" xmlns="http://www.w3.org/2000/svg" xmlns:xlink="http://www.w3.org/1999/xlink">
 <defs>
  <symbol id="s" overflow="visible">
   <path d="m4-0.23438c-0.21094 0.10547-0.42969 0.18359-0.65625 0.23438-0.21875 0.050781-0.44922 0.078125-0.6875 0.078125-0.73047 0-1.3086-0.19531-1.7344-0.59375-0.41797-0.40625-0.625-0.95703-0.625-1.6562 0-0.69531 0.20703-1.25 0.625-1.6562 0.42578-0.40625 1.0039-0.60938 1.7344-0.60938 0.23828 0 0.46875 0.03125 0.6875 0.09375 0.22656 0.054688 0.44531 0.13281 0.65625 0.23438v0.90625c-0.21094-0.14453-0.41797-0.25-0.625-0.3125-0.19922-0.0625-0.40625-0.09375-0.625-0.09375-0.40625 0-0.72656 0.13281-0.95312 0.39062-0.23047 0.25-0.34375 0.60156-0.34375 1.0469 0 0.44922 0.11328 0.80469 0.34375 1.0625 0.22656 0.25 0.54688 0.375 0.95312 0.375 0.21875 0 0.42578-0.03125 0.625-0.09375 0.20703-0.0625 0.41406-0.16406 0.625-0.3125z"/>
  </symbol>
  <symbol id="c" overflow="visible">
   <path d="m2.9219-2.375c-0.085937-0.039062-0.17188-0.070312-0.26562-0.09375-0.09375-0.019531-0.1875-0.03125-0.28125-0.03125-0.26172 0-0.46484 0.089844-0.60938 0.26562-0.14844 0.16797-0.21875 0.41406-0.21875 0.73438v1.5h-1.0469v-3.2656h1.0469v0.53125c0.13281-0.20703 0.28516-0.35938 0.45312-0.45312 0.17578-0.10156 0.38281-0.15625 0.625-0.15625 0.039062 0 0.082031 0.007812 0.125 0.015625 0.039062 0 0.097656 0.007813 0.17188 0.015625z"/>
  </symbol>
  <symbol id="a" overflow="visible">
   <path d="m3.7656-1.6406v0.29688h-2.4531c0.03125 0.25 0.11719 0.4375 0.26562 0.5625 0.15625 0.11719 0.36719 0.17188 0.64062 0.17188 0.21875 0 0.44141-0.03125 0.67188-0.09375 0.22656-0.0625 0.46875-0.16016 0.71875-0.29688v0.79688c-0.25 0.09375-0.5 0.16406-0.75 0.20312-0.24219 0.050781-0.48438 0.078125-0.73438 0.078125-0.59375 0-1.0586-0.14453-1.3906-0.4375-0.32422-0.30078-0.48438-0.72266-0.48438-1.2656 0-0.53125 0.16016-0.94531 0.48438-1.25 0.32031-0.3125 0.76562-0.46875 1.3281-0.46875 0.50781 0 0.92188 0.15625 1.2344 0.46875 0.3125 0.30469 0.46875 0.71484 0.46875 1.2344zm-1.0781-0.34375c0-0.19531-0.058594-0.35938-0.17188-0.48438-0.11719-0.125-0.26562-0.1875-0.45312-0.1875-0.21094 0-0.375 0.058594-0.5 0.17188-0.125 0.11719-0.20312 0.28125-0.23438 0.5z"/>
  </symbol>
  <symbol id="e" overflow="visible">
   <path d="m1.9688-1.4688c-0.21875 0-0.38672 0.039062-0.5 0.10938-0.10547 0.074219-0.15625 0.18359-0.15625 0.32812 0 0.13672 0.039062 0.24219 0.125 0.3125 0.09375 0.074219 0.21875 0.10938 0.375 0.10938 0.19531 0 0.35938-0.066406 0.48438-0.20312 0.13281-0.14453 0.20312-0.32031 0.20312-0.53125v-0.125zm1.5938-0.39062v1.8594h-1.0625v-0.48438c-0.13672 0.19922-0.29297 0.34375-0.46875 0.4375-0.17969 0.082031-0.39062 0.125-0.64062 0.125-0.33594 0-0.60938-0.09375-0.82812-0.28125-0.21094-0.19531-0.3125-0.45703-0.3125-0.78125 0-0.375 0.12891-0.64844 0.39062-0.82812 0.26953-0.1875 0.6875-0.28125 1.25-0.28125h0.60938v-0.078125c0-0.16406-0.070312-0.28516-0.20312-0.35938-0.125-0.082031-0.32422-0.125-0.59375-0.125-0.23047 0-0.4375 0.027344-0.625 0.078125-0.1875 0.042969-0.36719 0.10938-0.53125 0.20312v-0.79688c0.21875-0.0625 0.4375-0.10156 0.65625-0.125 0.22656-0.03125 0.45703-0.046875 0.6875-0.046875 0.59375 0 1.0195 0.12109 1.2812 0.35938 0.25781 0.23047 0.39062 0.60547 0.39062 1.125z"/>
  </symbol>
  <symbol id="b" overflow="visible">
   <path d="m1.6406-4.1875v0.92188h1.0781v0.75h-1.0781v1.375c0 0.15625 0.03125 0.26172 0.09375 0.3125 0.0625 0.054687 0.17969 0.078125 0.35938 0.078125h0.53125v0.75h-0.89062c-0.41797 0-0.71484-0.082031-0.89062-0.25-0.16797-0.17578-0.25-0.47266-0.25-0.89062v-1.375h-0.51562v-0.75h0.51562v-0.92188z"/>
  </symbol>
  <symbol id="n" overflow="visible">
   <path d="m2.7188-2.7812v-1.75h1.0469v4.5312h-1.0469v-0.46875c-0.14844 0.1875-0.30859 0.32812-0.48438 0.42188-0.16797 0.082031-0.36719 0.125-0.59375 0.125-0.39844 0-0.72656-0.15625-0.98438-0.46875-0.26172-0.32031-0.39062-0.73438-0.39062-1.2344 0-0.50781 0.12891-0.92188 0.39062-1.2344 0.25781-0.32031 0.58594-0.48438 0.98438-0.48438 0.22656 0 0.42578 0.046875 0.59375 0.14062 0.17578 0.085937 0.33594 0.22656 0.48438 0.42188zm-0.6875 2.1094c0.22656 0 0.39844-0.078125 0.51562-0.23438 0.11328-0.16406 0.17188-0.40625 0.17188-0.71875s-0.058594-0.54688-0.17188-0.70312c-0.11719-0.16406-0.28906-0.25-0.51562-0.25-0.21875 0-0.39062 0.085937-0.51562 0.25-0.11719 0.15625-0.17188 0.39062-0.17188 0.70312s0.054688 0.55469 0.17188 0.71875c0.125 0.15625 0.29688 0.23438 0.51562 0.23438z"/>
  </symbol>
  <symbol id="m" overflow="visible">
   <path d="m2.2344-0.67188c0.22656 0 0.39844-0.078125 0.51562-0.23438 0.11328-0.16406 0.17188-0.40625 0.17188-0.71875s-0.058594-0.54688-0.17188-0.70312c-0.11719-0.16406-0.28906-0.25-0.51562-0.25-0.21875 0-0.39062 0.085937-0.51562 0.25-0.11719 0.15625-0.17188 0.39062-0.17188 0.70312 0 0.30469 0.054687 0.53906 0.17188 0.70312 0.125 0.16797 0.29688 0.25 0.51562 0.25zm-0.6875-2.1094c0.14453-0.19531 0.30078-0.33594 0.46875-0.42188 0.17578-0.09375 0.37891-0.14062 0.60938-0.14062 0.40625 0 0.73438 0.16406 0.98438 0.48438 0.25781 0.3125 0.39062 0.72656 0.39062 1.2344 0 0.5-0.13281 0.91406-0.39062 1.2344-0.25 0.3125-0.57812 0.46875-0.98438 0.46875-0.23047 0-0.43359-0.042969-0.60938-0.125-0.16797-0.09375-0.32422-0.23438-0.46875-0.42188v0.46875h-1.0469v-4.5312h1.0469z"/>
  </symbol>
  <symbol id="l" overflow="visible">
   <path d="m0.078125-3.2656h1.0312l0.89062 2.2188 0.73438-2.2188h1.0469l-1.375 3.5781c-0.13672 0.36328-0.29688 0.61328-0.48438 0.75-0.17969 0.14453-0.41797 0.21875-0.71875 0.21875h-0.60938v-0.67188h0.32812c0.17578 0 0.30469-0.03125 0.39062-0.09375 0.082031-0.054687 0.14453-0.15234 0.1875-0.29688l0.03125-0.09375z"/>
  </symbol>
  <symbol id="k" overflow="visible">
   <path d="m0.54688-4.3438h1.125v1.6562h1.6562v-1.6562h1.125v4.3438h-1.125v-1.8438h-1.6562v1.8438h-1.125z"/>
  </symbol>
  <symbol id="j" overflow="visible">
   <path d="m0.46875-1.2656v-2h1.0469v0.32812 0.67188 0.53125c0 0.26172 0.003906 0.44922 0.015625 0.5625 0.007812 0.11719 0.03125 0.19922 0.0625 0.25 0.050781 0.074219 0.10938 0.13281 0.17188 0.17188 0.070313 0.03125 0.14844 0.046875 0.23438 0.046875 0.21875 0 0.39062-0.082031 0.51562-0.25 0.125-0.16406 0.1875-0.39844 0.1875-0.70312v-1.6094h1.0469v3.2656h-1.0469v-0.46875c-0.15625 0.1875-0.32422 0.32812-0.5 0.42188-0.17969 0.082031-0.37109 0.125-0.57812 0.125-0.375 0-0.66406-0.11328-0.85938-0.34375-0.19922-0.22656-0.29688-0.5625-0.29688-1z"/>
  </symbol>
  <symbol id="i" overflow="visible">
   <path d="m3.5312-2.7188c0.125-0.20703 0.27344-0.36328 0.45312-0.46875 0.1875-0.10156 0.39062-0.15625 0.60938-0.15625 0.375 0 0.66016 0.11719 0.85938 0.34375 0.19531 0.23047 0.29688 0.57031 0.29688 1.0156v1.9844h-1.0469v-1.7031-0.078125-0.10938c0-0.23828-0.039063-0.41016-0.10938-0.51562-0.0625-0.10156-0.17188-0.15625-0.32812-0.15625-0.19922 0-0.35156 0.085938-0.45312 0.25-0.10547 0.16797-0.16406 0.40234-0.17188 0.70312v1.6094h-1.0469v-1.7031c0-0.36328-0.03125-0.59766-0.09375-0.70312-0.0625-0.10156-0.17188-0.15625-0.32812-0.15625-0.19922 0-0.35547 0.085938-0.46875 0.25-0.10547 0.16797-0.15625 0.40234-0.15625 0.70312v1.6094h-1.0469v-3.2656h1.0469v0.48438c0.125-0.1875 0.26953-0.32812 0.4375-0.42188 0.16406-0.09375 0.34766-0.14062 0.54688-0.14062 0.22656 0 0.42578 0.058594 0.59375 0.17188 0.17578 0.10547 0.3125 0.25781 0.40625 0.45312z"/>
  </symbol>
  <symbol id="h" overflow="visible">
   <path d="m3.7812-1.9844v1.9844h-1.0469v-1.5156c0-0.28125-0.007813-0.47266-0.015625-0.57812-0.011719-0.11328-0.03125-0.19531-0.0625-0.25-0.042969-0.0625-0.10156-0.11328-0.17188-0.15625-0.074219-0.039062-0.15234-0.0625-0.23438-0.0625-0.21875 0-0.39062 0.089844-0.51562 0.26562-0.125 0.16797-0.1875 0.39844-0.1875 0.6875v1.6094h-1.0469v-3.2656h1.0469v0.48438c0.15625-0.19531 0.32031-0.33594 0.5-0.42188 0.17578-0.09375 0.36719-0.14062 0.57812-0.14062 0.38281 0 0.67188 0.11719 0.85938 0.34375 0.19531 0.23047 0.29688 0.57031 0.29688 1.0156z"/>
  </symbol>
  <symbol id="g" overflow="visible">
   <path d="m3.1406-3.1562v0.84375c-0.14844-0.09375-0.29297-0.16016-0.4375-0.20312-0.13672-0.050781-0.28125-0.078125-0.4375-0.078125-0.29297 0-0.52344 0.085938-0.6875 0.25-0.15625 0.16797-0.23438 0.40625-0.23438 0.71875 0 0.30469 0.078125 0.54297 0.23438 0.71875 0.16406 0.16797 0.39453 0.25 0.6875 0.25 0.16406 0 0.32031-0.023438 0.46875-0.078125 0.14453-0.050781 0.28125-0.125 0.40625-0.21875v0.85938c-0.16797 0.0625-0.33594 0.10156-0.5 0.125-0.16797 0.03125-0.33594 0.046875-0.5 0.046875-0.59375 0-1.0586-0.14844-1.3906-0.45312-0.33594-0.30078-0.5-0.71875-0.5-1.25 0-0.53906 0.16406-0.96094 0.5-1.2656 0.33203-0.30078 0.79688-0.45312 1.3906-0.45312 0.16406 0 0.33203 0.015625 0.5 0.046875 0.16406 0.03125 0.33203 0.078125 0.5 0.14062z"/>
  </symbol>
  <symbol id="f" overflow="visible">
   <path d="m3.7812-1.9844v1.9844h-1.0469v-1.5156c0-0.28125-0.007813-0.47266-0.015625-0.57812-0.011719-0.11328-0.03125-0.19531-0.0625-0.25-0.042969-0.0625-0.10156-0.11328-0.17188-0.15625-0.074219-0.039062-0.15234-0.0625-0.23438-0.0625-0.21875 0-0.39062 0.089844-0.51562 0.26562-0.125 0.16797-0.1875 0.39844-0.1875 0.6875v1.6094h-1.0469v-4.5312h1.0469v1.75c0.15625-0.19531 0.32031-0.33594 0.5-0.42188 0.17578-0.09375 0.36719-0.14062 0.57812-0.14062 0.38281 0 0.67188 0.11719 0.85938 0.34375 0.19531 0.23047 0.29688 0.57031 0.29688 1.0156z"/>
  </symbol>
  <symbol id="r" overflow="visible">
   <path d="m2.6562-4.5312v0.6875h-0.57812c-0.15625 0-0.26562 0.027344-0.32812 0.078125-0.054688 0.054687-0.078125 0.14844-0.078125 0.28125v0.21875h0.89062v0.75h-0.89062v2.5156h-1.0469v-2.5156h-0.51562v-0.75h0.51562v-0.21875c0-0.36328 0.097656-0.62891 0.29688-0.79688 0.20703-0.16406 0.51562-0.25 0.92188-0.25z"/>
  </symbol>
  <symbol id="d" overflow="visible">
   <path d="m2.0469-2.5938c-0.23047 0-0.40625 0.085938-0.53125 0.25-0.11719 0.16797-0.17188 0.40625-0.17188 0.71875s0.054688 0.55469 0.17188 0.71875c0.125 0.16797 0.30078 0.25 0.53125 0.25 0.22656 0 0.39844-0.082031 0.51562-0.25 0.125-0.16406 0.1875-0.40625 0.1875-0.71875s-0.0625-0.55078-0.1875-0.71875c-0.11719-0.16406-0.28906-0.25-0.51562-0.25zm0-0.75c0.5625 0 1 0.15234 1.3125 0.45312 0.32031 0.30469 0.48438 0.72656 0.48438 1.2656 0 0.53125-0.16406 0.94922-0.48438 1.25-0.3125 0.30469-0.75 0.45312-1.3125 0.45312s-1.0078-0.14844-1.3281-0.45312c-0.3125-0.30078-0.46875-0.71875-0.46875-1.25 0-0.53906 0.15625-0.96094 0.46875-1.2656 0.32031-0.30078 0.76562-0.45312 1.3281-0.45312z"/>
  </symbol>
  <symbol id="q" overflow="visible">
   <path d="m0.54688-4.3438h1.25l1.5938 2.9844v-2.9844h1.0625v4.3438h-1.2656l-1.5781-2.9844v2.9844h-1.0625z"/>
  </symbol>
  <symbol id="p" overflow="visible">
   <path d="m0.54688-4.3438h1.8594c0.55078 0 0.97266 0.125 1.2656 0.375 0.30078 0.24219 0.45312 0.58594 0.45312 1.0312 0 0.46094-0.15234 0.8125-0.45312 1.0625-0.29297 0.24219-0.71484 0.35938-1.2656 0.35938h-0.73438v1.5156h-1.125zm1.125 0.8125v1.2031h0.625c0.20703 0 0.36719-0.050781 0.48438-0.15625 0.125-0.10156 0.1875-0.25391 0.1875-0.45312 0-0.1875-0.0625-0.33203-0.1875-0.4375-0.11719-0.10156-0.27734-0.15625-0.48438-0.15625z"/>
  </symbol>
  <symbol id="o" overflow="visible">
   <path d="m0.5-3.2656h1.0469v3.2031c0 0.4375-0.10547 0.76953-0.3125 1-0.21094 0.22656-0.51562 0.34375-0.92188 0.34375h-0.51562v-0.67188h0.1875c0.19531 0 0.33203-0.046875 0.40625-0.14062 0.070313-0.09375 0.10938-0.27344 0.10938-0.53125zm0-1.2656h1.0469v0.84375h-1.0469z"/>
  </symbol>
 </defs>
 <g>
  <path d="m350.6 95.102c62.012 0 112.09 50.086 112.09 113.29 0 62.012-50.086 112.09-112.09 112.09-63.203 0-113.29-50.086-113.29-112.09 0-63.203 50.086-113.29 113.29-113.29zm0 23.852c-50.086 0-89.438 39.352-89.438 89.438 0 48.895 39.352 88.246 89.438 88.246 48.895 0 88.246-39.352 88.246-88.246 0-50.086-39.352-89.438-88.246-89.438z"/>
  <path d="m205.11 493.4c0 5.9609-5.9609 10.734-13.117 9.5391-5.9609 0-10.734-5.9609-9.5391-13.117 9.5391-84.668 81.09-150.25 168.14-150.25 85.859 0 158.6 65.586 168.14 150.25 0 7.1562-4.7695 13.117-10.734 13.117-7.1562 1.1914-13.117-3.5781-13.117-9.5391-8.3477-73.934-70.359-129.98-144.29-129.98s-137.14 56.047-145.48 129.98z"/>
  <path d="m571.21 191.7c48.895 0 88.246 39.352 88.246 87.055 0 48.895-39.352 88.246-88.246 88.246-47.699 0-87.055-39.352-87.055-88.246 0-47.699 39.352-87.055 87.055-87.055zm0 23.852c-34.582 0-63.203 28.621-63.203 63.203 0 35.773 28.621 64.395 63.203 64.395 35.773 0 64.395-28.621 64.395-64.395 0-34.582-28.621-63.203-64.395-63.203z"/>
  <path d="m523.51 414.69c-5.9609 3.5781-13.117 1.1914-16.695-4.7695-2.3867-5.9609 0-13.117 5.9609-16.695 17.887-8.3477 38.16-14.309 58.434-14.309 64.395 0 119.25 47.699 128.79 110.9 1.1914 5.9609-3.5781 13.117-9.5391 13.117-7.1562 1.1914-13.117-3.5781-14.309-9.5391-7.1562-52.469-52.469-90.629-104.94-90.629-16.695 0-33.391 4.7695-47.699 11.926z"/>
  <path d="m128.79 191.7c47.699 0 87.055 39.352 87.055 87.055 0 48.895-39.352 88.246-87.055 88.246-48.895 0-88.246-39.352-88.246-88.246 0-47.699 39.352-87.055 88.246-87.055zm0 23.852c-35.773 0-64.395 28.621-64.395 63.203 0 35.773 28.621 64.395 64.395 64.395 34.582 0 63.203-28.621 63.203-64.395 0-34.582-28.621-63.203-63.203-63.203z"/>
  <path d="m23.852 493.4c-1.1914 5.9609-7.1562 10.734-13.117 9.5391-7.1562 0-11.926-7.1562-10.734-13.117 9.5391-63.203 64.395-110.9 128.79-110.9 20.273 0 40.547 5.9609 59.625 14.309 4.7695 3.5781 7.1562 10.734 4.7695 16.695-3.5781 5.9609-10.734 8.3477-16.695 4.7695-14.309-7.1562-31.004-11.926-47.699-11.926-52.469 0-97.785 38.16-104.94 90.629z"/>
 </g>
</svg>
