<?xml version="1.0" encoding="UTF-8"?>
<svg width="700pt" height="700pt" fill="white" version="1.1" viewBox="0 0 700 700" xmlns="http://www.w3.org/2000/svg" xmlns:xlink="http://www.w3.org/1999/xlink">
 <defs>
  <symbol id="r" overflow="visible">
   <path d="m28.859-1.7188c-1.4922 0.77344-3.043 1.3516-4.6562 1.7344-1.6055 0.39453-3.2891 0.59375-5.0469 0.59375-5.2305 0-9.375-1.457-12.438-4.375-3.0547-2.9258-4.5781-6.8945-4.5781-11.906 0-5.0195 1.5234-8.9883 4.5781-11.906 3.0625-2.9258 7.207-4.3906 12.438-4.3906 1.7578 0 3.4414 0.19922 5.0469 0.59375 1.6133 0.38672 3.1641 0.96484 4.6562 1.7344v6.5c-1.5-1.0195-2.9805-1.7695-4.4375-2.25-1.4609-0.47656-2.9961-0.71875-4.6094-0.71875-2.8867 0-5.1562 0.92969-6.8125 2.7812-1.6562 1.8555-2.4844 4.4062-2.4844 7.6562 0 3.2422 0.82812 5.7891 2.4844 7.6406 1.6562 1.8438 3.9258 2.7656 6.8125 2.7656 1.6133 0 3.1484-0.23438 4.6094-0.70312 1.457-0.47656 2.9375-1.2266 4.4375-2.25z"/>
  </symbol>
  <symbol id="c" overflow="visible">
   <path d="m21.125-17.141c-0.66797-0.3125-1.3281-0.53906-1.9844-0.6875-0.64844-0.14453-1.2969-0.21875-1.9531-0.21875-1.9375 0-3.4336 0.62109-4.4844 1.8594-1.043 1.2422-1.5625 3.0156-1.5625 5.3281v10.859h-7.5156v-23.562h7.5156v3.875c0.96875-1.5391 2.0781-2.6641 3.3281-3.375 1.2578-0.70703 2.7695-1.0625 4.5312-1.0625 0.25 0 0.51953 0.011719 0.8125 0.03125 0.28906 0.023438 0.71875 0.070312 1.2812 0.14062z"/>
  </symbol>
  <symbol id="b" overflow="visible">
   <path d="m27.141-11.844v2.1406h-17.609c0.17578 1.7734 0.8125 3.1016 1.9062 3.9844 1.0938 0.88672 2.625 1.3281 4.5938 1.3281 1.582 0 3.2031-0.23438 4.8594-0.70312 1.6641-0.47656 3.375-1.1914 5.125-2.1406v5.7969c-1.7812 0.67969-3.5625 1.1875-5.3438 1.5312s-3.5625 0.51562-5.3438 0.51562c-4.2617 0-7.5742-1.082-9.9375-3.25-2.3672-2.1641-3.5469-5.207-3.5469-9.125 0-3.832 1.1602-6.8477 3.4844-9.0469 2.3203-2.207 5.5156-3.3125 9.5781-3.3125 3.707 0 6.6719 1.1172 8.8906 3.3438 2.2266 2.2305 3.3438 5.2109 3.3438 8.9375zm-7.75-2.5c0-1.4258-0.41797-2.5781-1.25-3.4531-0.83594-0.88281-1.9219-1.3281-3.2656-1.3281-1.4609 0-2.6484 0.41406-3.5625 1.2344-0.90625 0.82422-1.4766 2.0078-1.7031 3.5469z"/>
  </symbol>
  <symbol id="i" overflow="visible">
   <path d="m14.172-10.594c-1.5625 0-2.7461 0.26562-3.5469 0.79688-0.79297 0.53125-1.1875 1.3125-1.1875 2.3438 0 0.96094 0.31641 1.7109 0.95312 2.25 0.64453 0.54297 1.5352 0.8125 2.6719 0.8125 1.4141 0 2.6094-0.50781 3.5781-1.5312 0.96875-1.0195 1.4531-2.2891 1.4531-3.8125v-0.85938zm11.516-2.8438v13.438h-7.5938v-3.4844c-1.0117 1.4297-2.1523 2.4688-3.4219 3.125-1.2617 0.64453-2.793 0.96875-4.5938 0.96875-2.4375 0-4.4219-0.70703-5.9531-2.125-1.5234-1.4258-2.2812-3.2734-2.2812-5.5469 0-2.7695 0.94531-4.7969 2.8438-6.0781 1.9062-1.2891 4.8945-1.9375 8.9688-1.9375h4.4375v-0.59375c0-1.1875-0.47656-2.0547-1.4219-2.6094-0.9375-0.5625-2.4023-0.84375-4.3906-0.84375-1.6172 0-3.1172 0.16406-4.5 0.48438-1.3867 0.32422-2.6797 0.80859-3.875 1.4531v-5.7344c1.6133-0.39453 3.2344-0.69141 4.8594-0.89062 1.6328-0.20703 3.2656-0.3125 4.8906-0.3125 4.25 0 7.3164 0.83984 9.2031 2.5156 1.8828 1.6797 2.8281 4.4023 2.8281 8.1719z"/>
  </symbol>
  <symbol id="a" overflow="visible">
   <path d="m11.844-30.25v6.6875h7.7656v5.3906h-7.7656v9.9844c0 1.0938 0.21094 1.8359 0.64062 2.2188 0.4375 0.38672 1.3008 0.57812 2.5938 0.57812h3.875v5.3906h-6.4531c-2.9805 0-5.0898-0.61719-6.3281-1.8594-1.2422-1.2383-1.8594-3.3477-1.8594-6.3281v-9.9844h-3.75v-5.3906h3.75v-6.6875z"/>
  </symbol>
  <symbol id="h" overflow="visible">
   <path d="m19.641-20.109v-12.625h7.5781v32.734h-7.5781v-3.4062c-1.0312 1.3867-2.1719 2.4023-3.4219 3.0469s-2.6953 0.96875-4.3281 0.96875c-2.9062 0-5.293-1.1484-7.1562-3.4531-1.8672-2.3125-2.7969-5.2852-2.7969-8.9219 0-3.625 0.92969-6.5859 2.7969-8.8906 1.8633-2.3125 4.25-3.4688 7.1562-3.4688 1.625 0 3.0625 0.32812 4.3125 0.98438 1.2578 0.64844 2.4062 1.6562 3.4375 3.0312zm-4.9531 15.25c1.6016 0 2.8281-0.58594 3.6719-1.7656 0.85156-1.1758 1.2812-2.8906 1.2812-5.1406 0-2.2383-0.42969-3.9453-1.2812-5.125-0.84375-1.1758-2.0703-1.7656-3.6719-1.7656-1.6055 0-2.8359 0.58984-3.6875 1.7656-0.84375 1.1797-1.2656 2.8867-1.2656 5.125 0 2.25 0.42188 3.9648 1.2656 5.1406 0.85156 1.1797 2.082 1.7656 3.6875 1.7656z"/>
  </symbol>
  <symbol id="g" overflow="visible">
   <path d="m16.156-4.8594c1.6133 0 2.8438-0.58594 3.6875-1.7656 0.85156-1.1758 1.2812-2.8906 1.2812-5.1406 0-2.2383-0.42969-3.9453-1.2812-5.125-0.84375-1.1758-2.0742-1.7656-3.6875-1.7656-1.6172 0-2.8555 0.59375-3.7188 1.7812-0.86719 1.1797-1.2969 2.8828-1.2969 5.1094 0 2.2422 0.42969 3.9531 1.2969 5.1406 0.86328 1.1797 2.1016 1.7656 3.7188 1.7656zm-5.0156-15.25c1.0391-1.375 2.1914-2.3828 3.4531-3.0312 1.2578-0.65625 2.7109-0.98438 4.3594-0.98438 2.9062 0 5.2891 1.1562 7.1562 3.4688 1.8633 2.3047 2.7969 5.2656 2.7969 8.8906 0 3.6367-0.93359 6.6094-2.7969 8.9219-1.8672 2.3047-4.25 3.4531-7.1562 3.4531-1.6484 0-3.1016-0.32422-4.3594-0.96875-1.2617-0.65625-2.4141-1.6719-3.4531-3.0469v3.4062h-7.5156v-32.734h7.5156z"/>
  </symbol>
  <symbol id="f" overflow="visible">
   <path d="m0.53125-23.562h7.5312l6.3281 15.984 5.375-15.984h7.5312l-9.9062 25.797c-0.99219 2.6133-2.1523 4.4414-3.4844 5.4844-1.3242 1.0508-3.0703 1.5781-5.2344 1.5781h-4.3594v-4.9375h2.3594c1.2695 0 2.1953-0.20312 2.7812-0.60938 0.58203-0.40625 1.0352-1.1367 1.3594-2.1875l0.20312-0.65625z"/>
  </symbol>
  <symbol id="e" overflow="visible">
   <path d="m0.20312-31.406h8.1406l8.3438 23.188 8.2969-23.188h8.1406l-11.625 31.406h-9.6562z"/>
  </symbol>
  <symbol id="q" overflow="visible">
   <path d="m22.656-22.828v6.1406c-1.0234-0.69531-2.0469-1.2109-3.0781-1.5469-1.0312-0.33203-2.1055-0.5-3.2188-0.5-2.1055 0-3.7422 0.61719-4.9062 1.8438-1.168 1.2188-1.75 2.9297-1.75 5.125 0 2.2109 0.58203 3.9297 1.75 5.1562 1.1641 1.2188 2.8008 1.8281 4.9062 1.8281 1.1758 0 2.2969-0.17188 3.3594-0.51562 1.0625-0.35156 2.0391-0.875 2.9375-1.5625v6.1719c-1.1797 0.42969-2.375 0.75-3.5938 0.96875-1.2109 0.21875-2.4219 0.32812-3.6406 0.32812-4.25 0-7.5781-1.0859-9.9844-3.2656-2.3984-2.1875-3.5938-5.2227-3.5938-9.1094 0-3.875 1.1953-6.8984 3.5938-9.0781 2.4062-2.1875 5.7344-3.2812 9.9844-3.2812 1.2266 0 2.4414 0.10938 3.6406 0.32812 1.1953 0.21875 2.3945 0.54297 3.5938 0.96875z"/>
  </symbol>
  <symbol id="d" overflow="visible">
   <path d="m14.828-18.734c-1.668 0-2.9375 0.60156-3.8125 1.7969-0.875 1.1992-1.3125 2.9219-1.3125 5.1719 0 2.2617 0.4375 3.9922 1.3125 5.1875 0.875 1.1992 2.1445 1.7969 3.8125 1.7969 1.6445 0 2.8984-0.59766 3.7656-1.7969 0.86328-1.1953 1.2969-2.9258 1.2969-5.1875 0-2.25-0.43359-3.9727-1.2969-5.1719-0.86719-1.1953-2.1211-1.7969-3.7656-1.7969zm0-5.3906c4.0508 0 7.2188 1.0938 9.5 3.2812s3.4219 5.2148 3.4219 9.0781c0 3.875-1.1406 6.9062-3.4219 9.0938s-5.4492 3.2812-9.5 3.2812c-4.0625 0-7.2461-1.0938-9.5469-3.2812-2.293-2.1875-3.4375-5.2188-3.4375-9.0938 0-3.8633 1.1445-6.8906 3.4375-9.0781 2.3008-2.1875 5.4844-3.2812 9.5469-3.2812z"/>
  </symbol>
  <symbol id="p" overflow="visible">
   <path d="m22.016-22.828v5.7344c-1.6055-0.67578-3.1562-1.1797-4.6562-1.5156-1.5-0.34375-2.918-0.51562-4.25-0.51562-1.4375 0-2.5078 0.18359-3.2031 0.54688-0.6875 0.35547-1.0312 0.90234-1.0312 1.6406 0 0.60547 0.25781 1.0703 0.78125 1.3906 0.53125 0.32422 1.4766 0.5625 2.8438 0.71875l1.3125 0.1875c3.8633 0.49219 6.457 1.2969 7.7812 2.4219 1.332 1.125 2 2.8867 2 5.2812 0 2.5117-0.92969 4.3984-2.7812 5.6562-1.8438 1.2617-4.6055 1.8906-8.2812 1.8906-1.5547 0-3.1641-0.125-4.8281-0.375-1.6562-0.23828-3.3594-0.60156-5.1094-1.0938v-5.7188c1.5 0.73047 3.0352 1.2773 4.6094 1.6406 1.582 0.36719 3.1875 0.54688 4.8125 0.54688 1.4688 0 2.5703-0.20312 3.3125-0.60938 0.75-0.40625 1.125-1.0078 1.125-1.8125 0-0.67578-0.26172-1.1758-0.78125-1.5-0.51172-0.33203-1.5273-0.59375-3.0469-0.78125l-1.3281-0.15625c-3.3555-0.42578-5.7031-1.207-7.0469-2.3438-1.3438-1.1328-2.0156-2.8594-2.0156-5.1719 0-2.5 0.85156-4.3477 2.5625-5.5469 1.707-1.207 4.3281-1.8125 7.8594-1.8125 1.3945 0 2.8516 0.10547 4.375 0.3125 1.5312 0.21094 3.1914 0.53906 4.9844 0.98438z"/>
  </symbol>
  <symbol id="o" overflow="visible">
   <path d="m3.9531-31.406h13.438c4 0 7.0664 0.89062 9.2031 2.6719 2.1445 1.7734 3.2188 4.2969 3.2188 7.5781 0 3.293-1.0742 5.8281-3.2188 7.6094-2.1367 1.7734-5.2031 2.6562-9.2031 2.6562h-5.3438v10.891h-8.0938zm8.0938 5.875v8.7656h4.4844c1.5703 0 2.7852-0.37891 3.6406-1.1406 0.85156-0.76953 1.2812-1.8516 1.2812-3.25 0-1.4062-0.42969-2.4844-1.2812-3.2344-0.85547-0.75781-2.0703-1.1406-3.6406-1.1406z"/>
  </symbol>
  <symbol id="n" overflow="visible">
   <path d="m3.625-23.562h7.5156v23.562h-7.5156zm0-9.1719h7.5156v6.1406h-7.5156z"/>
  </symbol>
  <symbol id="m" overflow="visible">
   <path d="m27.297-14.344v14.344h-7.5625v-10.984c0-2.0312-0.046875-3.4297-0.14062-4.2031-0.09375-0.76953-0.25-1.3359-0.46875-1.7031-0.30469-0.48828-0.71094-0.86719-1.2188-1.1406-0.5-0.28125-1.0703-0.42188-1.7031-0.42188-1.5742 0-2.8125 0.60938-3.7188 1.8281-0.89844 1.2109-1.3438 2.8867-1.3438 5.0312v11.594h-7.5156v-23.562h7.5156v3.4531c1.1445-1.375 2.3516-2.3828 3.625-3.0312 1.2812-0.65625 2.6914-0.98438 4.2344-0.98438 2.7188 0 4.7812 0.83594 6.1875 2.5 1.4062 1.668 2.1094 4.0938 2.1094 7.2812z"/>
  </symbol>
  <symbol id="l" overflow="visible">
   <path d="m19.125-32.734v4.9531h-4.1719c-1.0625 0-1.8086 0.19531-2.2344 0.57812-0.41797 0.38672-0.625 1.0547-0.625 2v1.6406h6.4375v5.3906h-6.4375v18.172h-7.5312v-18.172h-3.7344v-5.3906h3.7344v-1.6406c0-2.5625 0.71094-4.457 2.1406-5.6875 1.4375-1.2266 3.6562-1.8438 6.6562-1.8438z"/>
  </symbol>
  <symbol id="k" overflow="visible">
   <path d="m27.297-14.344v14.344h-7.5625v-10.938c0-2.0625-0.046875-3.4766-0.14062-4.25-0.09375-0.76953-0.25-1.3359-0.46875-1.7031-0.30469-0.48828-0.71094-0.86719-1.2188-1.1406-0.5-0.28125-1.0703-0.42188-1.7031-0.42188-1.5742 0-2.8125 0.60938-3.7188 1.8281-0.89844 1.2109-1.3438 2.8867-1.3438 5.0312v11.594h-7.5156v-32.734h7.5156v12.625c1.1445-1.375 2.3516-2.3828 3.625-3.0312 1.2812-0.65625 2.6914-0.98438 4.2344-0.98438 2.7188 0 4.7812 0.83594 6.1875 2.5 1.4062 1.668 2.1094 4.0938 2.1094 7.2812z"/>
  </symbol>
  <symbol id="j" overflow="visible">
   <path d="m3.625-23.562h7.5156v23.141c0 3.1562-0.75781 5.5625-2.2656 7.2188-1.5117 1.6641-3.7031 2.5-6.5781 2.5h-3.7344v-4.9375h1.3125c1.4258 0 2.4062-0.32422 2.9375-0.96875 0.53906-0.64844 0.8125-1.918 0.8125-3.8125zm0-9.1719h7.5156v6.1406h-7.5156z"/>
  </symbol>
 </defs>
 <g>
  <path d="m300.03 225.72c3.4453 0 6.8906-2.5859 6.8906-6.8906v-74.953c0-3.4453-2.5859-6.8906-6.8906-6.8906l-114.59-0.003906c-3.4453 0-6.8906 2.5859-6.8906 6.8906v74.953c0 3.4453 2.5859 6.8906 6.8906 6.8906zm-6.0312-12.922h-67.199v-62.031h67.199zm-102.52-61.172h21.539v62.031h-21.539z"/>
  <path d="m618.8 392c-21.539-7.7539-36.184-27.57-36.184-50.832s14.645-43.078 36.184-50.832c3.4453-0.86328 5.168-5.168 4.3086-8.6172-0.86328-3.4453-5.168-5.168-8.6172-4.3086-20.676 6.8906-35.324 23.262-42.215 43.078h-16.371v-10.336c0-3.4453-2.5859-6.8906-6.8906-6.8906h-93.906v-58.586c0-17.23-12.922-31.016-28.43-32.738l-90.461-13.785v-62.031c0-14.645-12.062-25.848-25.848-25.848l-134.4 0.003906c-14.645 0-25.848 12.062-25.848 25.848v133.54c0 14.645 12.062 25.848 25.848 25.848h29.293v46.523l-75.816-0.003906c-29.293 0-52.555 24.125-52.555 53.414 0 29.293 24.125 52.555 52.555 52.555h319.63c29.293 0 52.555-24.125 52.555-52.555 0-6.0312-0.86328-12.062-3.4453-18.094h51.691c3.4453 0 6.8906-2.5859 6.8906-6.8906v-12.062h15.508c6.0312 20.676 21.539 37.047 42.215 44.801h1.7227c2.5859 0 5.168-1.7227 6.0312-4.3086 1.7227-2.582 0-6.0273-3.4453-6.8906zm-176.62-146.46v24.125l-106.83-0.003906v-24.984l106.83 0.86328c-0.85938-0.86328 0 0 0 0zm-106.83 58.586v-21.539h105.97v21.539zm88.738-79.262c5.168 0.86328 9.4766 3.4453 12.922 6.8906h-101.66v-20.676zm-261.05 45.66v-133.54c0-6.8906 6.0312-12.922 12.922-12.922h133.54c6.8906 0 12.922 6.0312 12.922 12.922v146.46h-146.46c-7.7539 0-12.922-5.168-12.922-12.922zm55.137 25.848h104.25v46.523l-104.25-0.003906zm230.89 139.57h-319.63c-22.398 0-39.629-18.094-39.629-39.629 0-22.398 18.094-39.629 39.629-39.629h319.63c22.398 0 39.629 18.094 39.629 40.492 0.003906 20.676-18.086 38.766-39.625 38.766zm94.77-70.645h-51.691c-9.4766-12.922-24.984-22.398-43.078-22.398l-113.72-0.003906v-26.707h208.49zm12.922-18.953v-12.922h13.785c0 2.5859-0.86328 5.168-0.86328 7.7539 0 1.7227 0 3.4453 0.86328 5.168z"/>
  <path d="m439.6 370.46c-14.645 0-25.848 12.062-25.848 25.848s12.062 25.848 25.848 25.848c13.785 0 25.848-12.062 25.848-25.848-0.003907-13.785-12.066-25.848-25.848-25.848zm0 38.77c-6.8906 0-12.922-6.0312-12.922-12.922s6.0312-12.922 12.922-12.922c6.8906 0 12.922 6.0312 12.922 12.922s-6.0312 12.922-12.922 12.922z"/>
  <path d="m338.8 370.46c-14.645 0-25.848 12.062-25.848 25.848s12.062 25.848 25.848 25.848c13.785 0 25.848-12.062 25.848-25.848-0.003907-13.785-11.203-25.848-25.848-25.848zm0 38.77c-6.8906 0-12.922-6.0312-12.922-12.922s6.0312-12.922 12.922-12.922 12.922 6.0312 12.922 12.922-5.168 12.922-12.922 12.922z"/>
  <path d="m238.86 370.46c-14.645 0-25.848 12.062-25.848 25.848s12.062 25.848 25.848 25.848c13.785 0 25.848-12.062 25.848-25.848-0.003907-13.785-11.203-25.848-25.848-25.848zm0 38.77c-6.8906 0-12.922-6.0312-12.922-12.922s6.0312-12.922 12.922-12.922 12.922 6.0312 12.922 12.922-5.168 12.922-12.922 12.922z"/>
  <path d="m138.92 370.46c-14.645 0-25.848 12.062-25.848 25.848s12.062 25.848 25.848 25.848 25.848-12.062 25.848-25.848-11.199-25.848-25.848-25.848zm0 38.77c-6.8906 0-12.922-6.0312-12.922-12.922s6.0312-12.922 12.922-12.922 12.922 6.0312 12.922 12.922c0.003906 6.8906-6.0273 12.922-12.922 12.922z"/>

 </g>
</svg>
